<mxfile host="app.diagrams.net" agent="Mozilla/5.0 (Windows NT 10.0; Win64; x64) AppleWebKit/537.36 (KHTML, like Gecko) Chrome/130.0.0.0 Safari/537.36" version="24.8.2" pages="2">
  <diagram name="Page-1" id="TrJe_vhDkz0FbCKXN-NS">
    <mxGraphModel dx="1221" dy="638" grid="1" gridSize="10" guides="1" tooltips="1" connect="1" arrows="1" fold="1" page="1" pageScale="1" pageWidth="850" pageHeight="1100" math="0" shadow="0">
      <root>
        <mxCell id="0" />
        <mxCell id="1" parent="0" />
        <mxCell id="kCcb87aEG7TZaezGmsdw-1" value="AvailableList" style="rounded=0;whiteSpace=wrap;html=1;" parent="1" vertex="1">
          <mxGeometry x="200" y="320" width="120" height="60" as="geometry" />
        </mxCell>
        <mxCell id="kCcb87aEG7TZaezGmsdw-2" value="" style="rounded=0;whiteSpace=wrap;html=1;" parent="1" vertex="1">
          <mxGeometry x="120" y="460" width="120" height="60" as="geometry" />
        </mxCell>
      </root>
    </mxGraphModel>
  </diagram>
  <diagram id="yyyg-0DLZjAJNNBIHDA1" name="Page-2">
    <mxGraphModel dx="1221" dy="638" grid="1" gridSize="10" guides="1" tooltips="1" connect="1" arrows="1" fold="1" page="1" pageScale="1" pageWidth="850" pageHeight="1100" math="0" shadow="0">
      <root>
        <mxCell id="0" />
        <mxCell id="1" parent="0" />
        <mxCell id="dJGA1dV8Xv3kRgS54Mjm-3" value="" style="rounded=0;whiteSpace=wrap;html=1;" vertex="1" parent="1">
          <mxGeometry x="481" y="199" width="279" height="320" as="geometry" />
        </mxCell>
        <mxCell id="dJGA1dV8Xv3kRgS54Mjm-19" value="" style="rounded=0;whiteSpace=wrap;html=1;" vertex="1" parent="1">
          <mxGeometry x="210" y="200" width="180" height="320" as="geometry" />
        </mxCell>
        <mxCell id="dJGA1dV8Xv3kRgS54Mjm-4" value="" style="edgeStyle=orthogonalEdgeStyle;rounded=0;orthogonalLoop=1;jettySize=auto;html=1;" edge="1" parent="1" source="dJGA1dV8Xv3kRgS54Mjm-1" target="dJGA1dV8Xv3kRgS54Mjm-2">
          <mxGeometry relative="1" as="geometry" />
        </mxCell>
        <mxCell id="dJGA1dV8Xv3kRgS54Mjm-1" value="GitHub&amp;nbsp;&lt;div&gt;Repo&lt;/div&gt;" style="rounded=0;whiteSpace=wrap;html=1;" vertex="1" parent="1">
          <mxGeometry x="240" y="410" width="120" height="60" as="geometry" />
        </mxCell>
        <mxCell id="dJGA1dV8Xv3kRgS54Mjm-2" value="Github&lt;div&gt;Workflow&lt;/div&gt;" style="rounded=0;whiteSpace=wrap;html=1;" vertex="1" parent="1">
          <mxGeometry x="240" y="230" width="120" height="60" as="geometry" />
        </mxCell>
        <mxCell id="dJGA1dV8Xv3kRgS54Mjm-9" value="" style="edgeStyle=orthogonalEdgeStyle;rounded=0;orthogonalLoop=1;jettySize=auto;html=1;" edge="1" parent="1" source="dJGA1dV8Xv3kRgS54Mjm-6" target="dJGA1dV8Xv3kRgS54Mjm-8">
          <mxGeometry relative="1" as="geometry" />
        </mxCell>
        <mxCell id="dJGA1dV8Xv3kRgS54Mjm-6" value="Blob Storage" style="image;aspect=fixed;html=1;points=[];align=center;fontSize=12;image=img/lib/azure2/general/Blob_Block.svg;" vertex="1" parent="1">
          <mxGeometry x="510" y="240" width="65" height="52" as="geometry" />
        </mxCell>
        <mxCell id="dJGA1dV8Xv3kRgS54Mjm-7" style="edgeStyle=orthogonalEdgeStyle;rounded=0;orthogonalLoop=1;jettySize=auto;html=1;entryX=0.056;entryY=0.387;entryDx=0;entryDy=0;entryPerimeter=0;" edge="1" parent="1" source="dJGA1dV8Xv3kRgS54Mjm-2" target="dJGA1dV8Xv3kRgS54Mjm-6">
          <mxGeometry relative="1" as="geometry" />
        </mxCell>
        <mxCell id="dJGA1dV8Xv3kRgS54Mjm-8" value="CDN" style="image;aspect=fixed;html=1;points=[];align=center;fontSize=12;image=img/lib/azure2/networking/Front_Doors.svg;" vertex="1" parent="1">
          <mxGeometry x="660" y="236" width="68" height="60" as="geometry" />
        </mxCell>
        <mxCell id="dJGA1dV8Xv3kRgS54Mjm-10" value="Visitor" style="verticalLabelPosition=bottom;html=1;verticalAlign=top;align=center;strokeColor=none;fillColor=#00BEF2;shape=mxgraph.azure.user;" vertex="1" parent="1">
          <mxGeometry x="670.25" y="611" width="47.5" height="50" as="geometry" />
        </mxCell>
        <mxCell id="dJGA1dV8Xv3kRgS54Mjm-15" style="edgeStyle=orthogonalEdgeStyle;rounded=0;orthogonalLoop=1;jettySize=auto;html=1;entryX=0.5;entryY=1;entryDx=0;entryDy=0;" edge="1" parent="1" source="dJGA1dV8Xv3kRgS54Mjm-11" target="dJGA1dV8Xv3kRgS54Mjm-1">
          <mxGeometry relative="1" as="geometry" />
        </mxCell>
        <mxCell id="dJGA1dV8Xv3kRgS54Mjm-11" value="Developer" style="verticalLabelPosition=bottom;html=1;verticalAlign=top;align=center;strokeColor=none;fillColor=#00BEF2;shape=mxgraph.azure.user;" vertex="1" parent="1">
          <mxGeometry x="276.25" y="610" width="47.5" height="50" as="geometry" />
        </mxCell>
        <mxCell id="dJGA1dV8Xv3kRgS54Mjm-13" value="Azure" style="verticalLabelPosition=bottom;html=1;verticalAlign=top;align=center;strokeColor=none;fillColor=#00BEF2;shape=mxgraph.azure.cloud;" vertex="1" parent="1">
          <mxGeometry x="593" y="161" width="55" height="39" as="geometry" />
        </mxCell>
        <mxCell id="dJGA1dV8Xv3kRgS54Mjm-16" value="Triggers&lt;div&gt;Workflow&lt;/div&gt;" style="outlineConnect=0;dashed=0;verticalLabelPosition=bottom;verticalAlign=top;align=center;html=1;shape=mxgraph.aws3.human_intelligence_tasks_hit;fillColor=#ACACAC;gradientColor=none;" vertex="1" parent="1">
          <mxGeometry x="240" y="310" width="52.5" height="55.5" as="geometry" />
        </mxCell>
        <mxCell id="dJGA1dV8Xv3kRgS54Mjm-17" value="Github" style="dashed=0;outlineConnect=0;html=1;align=center;labelPosition=center;verticalLabelPosition=bottom;verticalAlign=top;shape=mxgraph.weblogos.github" vertex="1" parent="1">
          <mxGeometry x="270" y="150" width="60" height="50" as="geometry" />
        </mxCell>
        <mxCell id="dJGA1dV8Xv3kRgS54Mjm-18" value="" style="endArrow=none;html=1;rounded=0;" edge="1" parent="1">
          <mxGeometry width="50" height="50" relative="1" as="geometry">
            <mxPoint x="440" y="590" as="sourcePoint" />
            <mxPoint x="440" y="160" as="targetPoint" />
          </mxGeometry>
        </mxCell>
        <mxCell id="dJGA1dV8Xv3kRgS54Mjm-21" value="" style="endArrow=classic;html=1;rounded=0;exitX=0.541;exitY=0.98;exitDx=0;exitDy=0;exitPerimeter=0;entryX=0.5;entryY=0;entryDx=0;entryDy=0;entryPerimeter=0;" edge="1" parent="1" source="dJGA1dV8Xv3kRgS54Mjm-8" target="dJGA1dV8Xv3kRgS54Mjm-10">
          <mxGeometry width="50" height="50" relative="1" as="geometry">
            <mxPoint x="400" y="410" as="sourcePoint" />
            <mxPoint x="694" y="600" as="targetPoint" />
          </mxGeometry>
        </mxCell>
        <mxCell id="dJGA1dV8Xv3kRgS54Mjm-23" value="Entra Id" style="image;aspect=fixed;html=1;points=[];align=center;fontSize=12;image=img/lib/azure2/other/Entra_Identity.svg;" vertex="1" parent="1">
          <mxGeometry x="510" y="412" width="68" height="60.440000000000005" as="geometry" />
        </mxCell>
        <mxCell id="dJGA1dV8Xv3kRgS54Mjm-24" style="edgeStyle=orthogonalEdgeStyle;rounded=0;orthogonalLoop=1;jettySize=auto;html=1;entryX=0.999;entryY=0.628;entryDx=0;entryDy=0;entryPerimeter=0;exitX=0.054;exitY=0.586;exitDx=0;exitDy=0;exitPerimeter=0;" edge="1" parent="1" source="dJGA1dV8Xv3kRgS54Mjm-23" target="dJGA1dV8Xv3kRgS54Mjm-1">
          <mxGeometry relative="1" as="geometry">
            <mxPoint x="500" y="448" as="sourcePoint" />
          </mxGeometry>
        </mxCell>
        <mxCell id="dJGA1dV8Xv3kRgS54Mjm-25" value="Configure Secure Access to Azure" style="text;html=1;align=center;verticalAlign=middle;whiteSpace=wrap;rounded=0;strokeColor=default;" vertex="1" parent="1">
          <mxGeometry x="390" y="455" width="91" height="50" as="geometry" />
        </mxCell>
      </root>
    </mxGraphModel>
  </diagram>
</mxfile>
